<svg id="icon-infocard" xmlns="http://www.w3.org/2000/svg" width="20" height="20" viewBox="0 0 20 20">
  <rect id="Rectangle" width="20" height="20" fill="none"/>
  <path id="Shape" d="M13.333,11.667H1.667A1.669,1.669,0,0,1,0,10V1.667A1.669,1.669,0,0,1,1.667,0H13.333A1.669,1.669,0,0,1,15,1.667V10A1.669,1.669,0,0,1,13.333,11.667ZM6.219,8.75a1.675,1.675,0,0,1,1.4.714,1.74,1.74,0,0,1,.3.977v.393h5.417A.834.834,0,0,0,14.167,10V3.334H.833V10a.834.834,0,0,0,.833.833h.417V10.44a1.74,1.74,0,0,1,.3-.977,1.663,1.663,0,0,1,1.4-.714,1.916,1.916,0,0,1,.564.087,2.281,2.281,0,0,0,1.31,0A1.915,1.915,0,0,1,6.219,8.75Zm-2.435.836a.844.844,0,0,0-.711.344.918.918,0,0,0-.156.51v.393H7.088V10.44a.918.918,0,0,0-.156-.51.849.849,0,0,0-.711-.344,1.459,1.459,0,0,0-.385.067,3.067,3.067,0,0,1-1.67,0A1.446,1.446,0,0,0,3.784,9.586ZM1.667.833a.834.834,0,0,0-.833.833V2.5H14.167V1.667a.834.834,0,0,0-.833-.833ZM12.291,9.167H9.375a.209.209,0,0,1-.209-.208V8.542a.209.209,0,0,1,.209-.209h2.916a.209.209,0,0,1,.209.209v.417A.209.209,0,0,1,12.291,9.167ZM5,8.333A2.083,2.083,0,1,1,7.083,6.25,2.086,2.086,0,0,1,5,8.333ZM5,5A1.25,1.25,0,1,0,6.25,6.25,1.251,1.251,0,0,0,5,5Zm7.291,2.5H9.375a.209.209,0,0,1-.209-.208V6.875a.209.209,0,0,1,.209-.209h2.916a.209.209,0,0,1,.209.209v.417A.209.209,0,0,1,12.291,7.5Zm0-1.667H9.375a.209.209,0,0,1-.209-.208V5.208A.209.209,0,0,1,9.375,5h2.916a.209.209,0,0,1,.209.208v.417A.209.209,0,0,1,12.291,5.833Z" transform="translate(3 5)" fill="#5e5e5e"/>
</svg>
