<svg id="icon-chart" xmlns="http://www.w3.org/2000/svg" width="20" height="20" viewBox="0 0 20 20">
  <rect id="Rectangle" width="20" height="20" fill="none"/>
  <path id="Shape" d="M.352,11.25A.353.353,0,0,1,0,10.9V.352A.353.353,0,0,1,.352,0H.586A.353.353,0,0,1,.938.352v9.96H14.648a.353.353,0,0,1,.352.352V10.9a.353.353,0,0,1-.352.352ZM3.027,8.64l-.428-.4a.179.179,0,0,1-.008-.249L6.428,3.914a.175.175,0,0,1,.252,0L8.438,5.669,10.706,3.4,9.659,2.355A.966.966,0,0,1,10.342.706H13.1a.963.963,0,0,1,.967.963V4.424a.967.967,0,0,1-1.65.683L11.367,4.061,8.561,6.867a.179.179,0,0,1-.249,0L6.571,5.127l-3.3,3.5a.179.179,0,0,1-.248.009Z" transform="translate(3 5)" fill="#5e5e5e"/>
</svg>
