<svg id="icon-order" xmlns="http://www.w3.org/2000/svg" width="20" height="20" viewBox="0 0 20 20">
  <rect id="Rectangle" width="20" height="20" fill="none"/>
  <path id="Shape" d="M2.755,11.667a1.251,1.251,0,0,1-1.238-1.078L.741,5H.312A.313.313,0,0,1,0,4.687V4.479a.312.312,0,0,1,.312-.312h2L5.94.138A.417.417,0,0,1,6.56.7L3.435,4.167h8.129L8.44.7A.417.417,0,0,1,9.059.138l3.626,4.029h2A.313.313,0,0,1,15,4.479v.208A.313.313,0,0,1,14.687,5H14.26l-.777,5.588a1.249,1.249,0,0,1-1.238,1.078Z" transform="translate(3 4)" fill="#5e5e5e"/>
</svg>
