<svg id="icon-history" xmlns="http://www.w3.org/2000/svg" width="20" height="20" viewBox="0 0 20 20">
  <rect id="Rectangle" width="20" height="20" fill="none"/>
  <path id="Shape" d="M2.474,13.067a.364.364,0,0,1-.014-.527l.214-.213a.362.362,0,0,1,.5-.014A6.472,6.472,0,1,0,1.745,4.536H4.718a.363.363,0,0,1,.363.364v.3a.363.363,0,0,1-.363.363H.363A.363.363,0,0,1,0,5.2V.847A.363.363,0,0,1,.363.484h.3a.362.362,0,0,1,.363.363V3.708a7.5,7.5,0,1,1,1.446,9.359ZM9.583,10.1,7.016,8.231V3.266A.362.362,0,0,1,7.379,2.9h.242a.363.363,0,0,1,.363.363V7.737l2.168,1.578a.362.362,0,0,1,.08.507l-.142.2a.363.363,0,0,1-.507.08Z" transform="translate(3 3)" fill="#5e5e5e"/>
</svg>
