<svg id="icon-relation" xmlns="http://www.w3.org/2000/svg" width="20" height="20" viewBox="0 0 20 20">
  <rect id="Rectangle" width="20" height="20" fill="none"/>
  <path id="Shape" d="M6.375,12A1.125,1.125,0,0,1,5.25,10.875V8.625a1.117,1.117,0,0,1,.179-.6L3.348,4.5H1.125A1.125,1.125,0,0,1,0,3.375V1.125A1.125,1.125,0,0,1,1.125,0h2.25A1.125,1.125,0,0,1,4.5,1.125v.75h6v-.75A1.125,1.125,0,0,1,11.625,0h2.25A1.125,1.125,0,0,1,15,1.125v2.25A1.125,1.125,0,0,1,13.875,4.5h-2.25A1.125,1.125,0,0,1,10.5,3.375v-.75h-6v.75a1.117,1.117,0,0,1-.427.877L6.028,7.56a1.107,1.107,0,0,1,.346-.06h2.25A1.125,1.125,0,0,1,9.75,8.625v2.25A1.125,1.125,0,0,1,8.625,12Z" transform="translate(3 5)" fill="#5e5e5e"/>
</svg>
