<svg id="icon-booking" xmlns="http://www.w3.org/2000/svg" width="20" height="20" viewBox="0 0 20 20">
  <rect id="Rectangle" width="20" height="20" fill="none"/>
  <g id="calendar-check" transform="translate(3 2)">
    <path id="Shape" d="M1.406,15A1.407,1.407,0,0,1,0,13.594V3.281A1.407,1.407,0,0,1,1.406,1.875H2.813V.352A.352.352,0,0,1,3.164,0H3.4A.352.352,0,0,1,3.75.352V1.875H9.375V.352A.352.352,0,0,1,9.726,0h.235a.352.352,0,0,1,.351.352V1.875h1.407a1.406,1.406,0,0,1,1.406,1.407V13.594A1.406,1.406,0,0,1,11.719,15Z" fill="#5e5e5e"/>
  </g>
</svg>
