<svg xmlns="http://www.w3.org/2000/svg" xmlns:xlink="http://www.w3.org/1999/xlink" width="15" height="13.125" viewBox="0 0 15 13.125">
  <defs>
    <linearGradient id="linear-gradient" x1="1.059" y1="0.5" x2="0" y2="0.5" gradientUnits="objectBoundingBox">
      <stop offset="0" stop-color="#fe9350"/>
      <stop offset="1" stop-color="#ff645a"/>
    </linearGradient>
  </defs>
  <path id="Shape_Copy_3" data-name="Shape Copy 3" d="M5.156,13.125C2.313,13.125,0,12.073,0,10.781V5.156C0,3.774,2.415,2.928,4.687,2.833v-.49c0-1,1.352-1.592,1.506-1.657A9.113,9.113,0,0,1,9.843,0a8.3,8.3,0,0,1,3.83.765C14.517,1.2,15,1.776,15,2.344V7.969c0,1.22-2.015,2.222-4.688,2.332v.481C10.312,12.073,8,13.125,5.156,13.125ZM.938,9.313v1.468c0,.408,1.478,1.407,4.218,1.407s4.219-1,4.219-1.407V9.313a8.184,8.184,0,0,1-4.219,1A8.181,8.181,0,0,1,.938,9.313Zm0-2.812V7.969c0,.408,1.478,1.407,4.218,1.407s4.219-1,4.219-1.407V6.5a8.184,8.184,0,0,1-4.219,1A8.181,8.181,0,0,1,.938,6.5Zm13.125,0a7.808,7.808,0,0,1-3.75.976V9.355c2.474-.111,3.75-1.022,3.75-1.386ZM5.156,3.75c-2.37,0-4.3.631-4.3,1.406s1.928,1.407,4.3,1.407,4.3-.631,4.3-1.407S7.526,3.75,5.156,3.75Zm8.906-.062h0a7.857,7.857,0,0,1-3.87.991,1.147,1.147,0,0,1,.12.477V6.539c2.474-.114,3.75-1.021,3.75-1.383V3.688ZM9.847.938c-2.37,0-4.3.631-4.3,1.406a.679.679,0,0,0,.3.5,7.858,7.858,0,0,1,3.387.878l.119.007c.158.01.322.02.493.02,2.372,0,4.3-.631,4.3-1.407S12.217.938,9.847.938Z" fill="url(#linear-gradient)"/>
</svg>
